<?xml version="1.0" encoding="UTF-8"?>
<svg id="Layer_2" data-name="Layer 2" xmlns="http://www.w3.org/2000/svg" xmlns:xlink="http://www.w3.org/1999/xlink" viewBox="0 0 481.43 118.53">
  <defs>
    <style>
      .cls-1 {
        fill: url(#linear-gradient);
      }

      .cls-2 {
        fill: #fff;
      }

      .cls-3 {
        fill: #4b2684;
      }
    </style>
    <linearGradient id="linear-gradient" x1="4.66" y1="110.01" x2="91.33" y2="16.28" gradientUnits="userSpaceOnUse">
      <stop offset="0" stop-color="#465cef"/>
      <stop offset="1" stop-color="#6f5afd"/>
    </linearGradient>
  </defs>
  <g id="Layer_1-2" data-name="Layer 1">
    <g>
      <polygon class="cls-2" points="148.53 65.9 187.72 65.9 187.72 52.59 148.53 52.59 148.53 33.06 193.57 33.06 193.57 18.63 148.53 18.63 142.94 18.63 130.62 18.63 130.62 100.73 142.94 100.73 148.53 100.73 193.94 100.73 193.94 86.18 148.53 86.18 148.53 65.9"/>
      <rect class="cls-2" x="196.18" y="51.59" width="36.08" height="16.17"/>
      <path class="cls-2" d="M293.96,23.48c-6.3-3.23-14.43-4.85-24.38-4.85h-29.11V100.73h32.97c3.81,0,7.59-.44,11.32-1.31,3.73-.87,7.28-2.32,10.64-4.35,3.36-2.03,6.3-4.67,8.83-7.9,2.53-3.23,4.52-7.17,5.97-11.82,1.45-4.64,2.18-10.12,2.18-16.42,0-8.38-1.49-15.57-4.48-21.58-2.99-6.01-7.63-10.64-13.93-13.87Zm-2.55,50.76c-1.54,3.9-3.86,6.86-6.97,8.89-3.11,2.03-6.95,3.05-11.51,3.05h-14.68V33.18h11.94c3.98,0,7.46,.52,10.45,1.56,2.99,1.04,5.43,2.66,7.34,4.85,1.91,2.2,3.34,4.98,4.29,8.33,.95,3.36,1.43,7.36,1.43,12,0,5.64-.77,10.41-2.3,14.31Z"/>
      <path class="cls-2" d="M387.07,27.9c-3.36-3.61-7.4-6.34-12.13-8.21-4.73-1.87-10-2.8-15.8-2.8-7.55,0-14.29,1.6-20.22,4.79-5.93,3.19-10.55,7.96-13.87,14.31-3.32,6.34-4.98,14.37-4.98,24.07,0,6.88,.87,12.94,2.61,18.16,1.74,5.23,4.27,9.64,7.59,13.25,3.32,3.61,7.36,6.34,12.13,8.21,4.77,1.87,10.14,2.8,16.11,2.8s11.24-.91,16.05-2.74c4.81-1.82,8.91-4.54,12.32-8.15,3.4-3.61,6.03-8.06,7.9-13.37,1.87-5.31,2.8-11.49,2.8-18.54s-.91-13-2.74-18.35c-1.83-5.35-4.42-9.83-7.77-13.44Zm-10.14,47.77c-1.58,4.1-3.86,7.24-6.84,9.39-2.99,2.16-6.68,3.23-11.07,3.23-3.32,0-6.28-.64-8.89-1.93-2.61-1.28-4.77-3.11-6.47-5.47-1.7-2.36-3.03-5.31-3.98-8.83-.96-3.52-1.43-7.57-1.43-12.13,0-6.05,.81-11.17,2.43-15.36,1.62-4.19,3.94-7.38,6.97-9.58,3.03-2.2,6.7-3.3,11.01-3.3s8.15,1.14,11.26,3.42c3.11,2.28,5.45,5.58,7.03,9.89,1.57,4.31,2.36,9.54,2.36,15.67s-.79,10.88-2.36,14.99Z"/>
      <path class="cls-2" d="M474.71,82.32c-1.33-3.9-2.88-7.23-4.67-10.01-1.78-2.78-3.88-5.08-6.28-6.9-2.41-1.82-5.12-3.19-8.15-4.1-3.03-.91-6.49-1.37-10.39-1.37v-1.62c3.73-1.74,7.4-3.98,11.01-6.72s7.05-5.91,10.33-9.52c3.28-3.61,6.07-7.4,8.4-11.38,2.32-3.98,4.06-8,5.22-12.07h-20.53c-1,3.57-2.49,7.13-4.48,10.7-1.99,3.57-4.46,7.01-7.4,10.33-2.94,3.32-6.26,6.33-9.95,9.02-3.69,2.7-7.69,4.91-12,6.66V18.63h-17.79V100.73h17.79v-31.72h7.34c4.81,0,8.73,.56,11.76,1.68,3.03,1.12,5.45,2.9,7.28,5.35,1.82,2.45,3.36,5.7,4.6,9.77l4.35,14.93h20.28l-6.72-18.41Z"/>
    </g>
    <g>
      <path class="cls-1" d="M103.16,26.85V111.46c0,3.91-3.16,7.07-7.07,7.07H7.07c-3.9,0-7.07-3.16-7.07-7.07V7.07C0,3.16,3.17,0,7.07,0H76.31l26.85,26.85Z"/>
      <g>
        <rect class="cls-2" x="12.75" y="23.94" width="38.83" height="14.25" rx="7.13" ry="7.13"/>
        <rect class="cls-2" x="12.75" y="52.14" width="54.57" height="14.25" rx="7.13" ry="7.13"/>
        <rect class="cls-2" x="12.75" y="80.34" width="77.67" height="14.25" rx="7.13" ry="7.13"/>
      </g>
      <path class="cls-3" d="M103.16,26.85h-24.19c-1.47,0-2.66-1.19-2.66-2.66V0l26.85,26.85Z"/>
    </g>
  </g>
</svg>