<?xml version="1.0" encoding="UTF-8"?>
<svg id="Layer_2" data-name="Layer 2" xmlns="http://www.w3.org/2000/svg" xmlns:xlink="http://www.w3.org/1999/xlink" viewBox="0 0 1330.69 300">
  <defs>
    <style>
      .cls-1 {
        fill: url(#linear-gradient);
      }

      .cls-2 {
        fill: #fff;
      }

      .cls-3 {
        fill: #4b2684;
      }
    </style>
    <linearGradient id="linear-gradient" x1="11.79" y1="278.43" x2="231.15" y2="41.21" gradientUnits="userSpaceOnUse">
      <stop offset="0" stop-color="#465cef"/>
      <stop offset="1" stop-color="#6f5afd"/>
    </linearGradient>
  </defs>
  <g id="Layer_1-2" data-name="Layer 1">
    <g>
      <polygon class="cls-2" points="461.92 166.23 564.19 166.23 564.19 131.5 461.92 131.5 461.92 80.53 579.45 80.53 579.45 42.87 461.92 42.87 447.31 42.87 415.17 42.87 415.17 257.13 447.31 257.13 461.92 257.13 580.42 257.13 580.42 219.15 461.92 219.15 461.92 166.23"/>
      <rect class="cls-2" x="586.26" y="128.9" width="94.15" height="42.2"/>
      <path class="cls-2" d="M841.44,55.53c-16.45-8.44-37.66-12.66-63.63-12.66h-75.97v214.27h86.03c9.95,0,19.8-1.14,29.54-3.41,9.74-2.27,18.99-6.06,27.76-11.36,8.76-5.3,16.44-12.17,23.05-20.62,6.6-8.44,11.79-18.72,15.58-30.84,3.78-12.12,5.68-26.4,5.68-42.85,0-21.86-3.9-40.63-11.69-56.33-7.79-15.69-19.91-27.76-36.36-36.2Zm-6.66,132.46c-4.01,10.18-10.06,17.91-18.18,23.21-8.12,5.31-18.13,7.95-30.03,7.95h-38.31V80.85h31.17c10.39,0,19.48,1.35,27.27,4.06,7.79,2.71,14.18,6.93,19.15,12.66,4.98,5.74,8.71,12.99,11.2,21.75,2.48,8.76,3.73,19.21,3.73,31.33,0,14.72-2,27.16-6.01,37.34Z"/>
      <path class="cls-2" d="M1084.44,67.05c-8.77-9.42-19.32-16.56-31.65-21.43-12.34-4.87-26.08-7.31-41.23-7.31-19.7,0-37.29,4.17-52.76,12.5-15.47,8.33-27.54,20.78-36.2,37.34-8.66,16.56-12.98,37.5-12.98,62.82,0,17.97,2.27,33.76,6.82,47.4,4.54,13.64,11.14,25.16,19.8,34.58,8.65,9.41,19.21,16.56,31.65,21.43,12.44,4.87,26.46,7.3,42.04,7.3s29.32-2.38,41.88-7.14c12.55-4.76,23.26-11.85,32.14-21.27,8.87-9.41,15.74-21.05,20.62-34.9,4.87-13.85,7.3-29.97,7.3-48.37s-2.39-33.93-7.14-47.89c-4.76-13.96-11.52-25.65-20.29-35.06Zm-26.46,124.67c-4.11,10.71-10.06,18.88-17.86,24.51-7.79,5.63-17.43,8.44-28.9,8.44-8.66,0-16.39-1.67-23.21-5.03-6.82-3.35-12.45-8.12-16.88-14.28-4.44-6.17-7.9-13.85-10.39-23.05-2.49-9.2-3.73-19.75-3.73-31.65,0-15.8,2.11-29.16,6.33-40.09,4.22-10.93,10.28-19.26,18.18-25,7.9-5.73,17.48-8.6,28.73-8.6s21.27,2.98,29.38,8.93c8.12,5.96,14.23,14.56,18.34,25.81,4.11,11.26,6.17,24.89,6.17,40.91s-2.06,28.41-6.17,39.12Z"/>
      <path class="cls-2" d="M1313.15,209.09c-3.46-10.17-7.52-18.88-12.17-26.13-4.66-7.25-10.12-13.26-16.39-18.02-6.28-4.76-13.37-8.33-21.27-10.71-7.9-2.38-16.94-3.57-27.11-3.57v-4.22c9.74-4.55,19.32-10.39,28.73-17.53s18.39-15.42,26.95-24.84c8.55-9.41,15.85-19.32,21.92-29.7,6.06-10.39,10.6-20.88,13.63-31.49h-53.57c-2.6,9.31-6.49,18.62-11.69,27.92-5.2,9.31-11.64,18.29-19.32,26.95-7.68,8.66-16.34,16.51-25.97,23.54-9.63,7.04-20.08,12.82-31.33,17.37V42.87h-46.43v214.27h46.43v-82.79h19.15c12.55,0,22.78,1.46,30.68,4.38,7.9,2.92,14.23,7.58,18.99,13.96,4.76,6.39,8.77,14.88,12.01,25.48l11.36,38.96h52.92l-17.53-48.05Z"/>
    </g>
    <g>
      <path class="cls-1" d="M261.1,67.96v214.15c0,9.9-8,17.89-17.89,17.89H17.89c-9.87,0-17.89-8-17.89-17.89V17.89C0,8,8.02,0,17.89,0H193.14l67.96,67.96Z"/>
      <g>
        <rect class="cls-2" x="32.27" y="60.59" width="98.28" height="36.07" rx="18.03" ry="18.03"/>
        <rect class="cls-2" x="32.27" y="131.97" width="138.12" height="36.07" rx="18.03" ry="18.03"/>
        <rect class="cls-2" x="32.27" y="203.35" width="196.57" height="36.07" rx="18.03" ry="18.03"/>
      </g>
      <path class="cls-3" d="M261.1,67.96h-61.24c-3.71,0-6.72-3.01-6.72-6.72V0l67.96,67.96Z"/>
    </g>
  </g>
</svg>