<?xml version="1.0" encoding="UTF-8"?>
<svg id="Layer_2" data-name="Layer 2" xmlns="http://www.w3.org/2000/svg" xmlns:xlink="http://www.w3.org/1999/xlink" viewBox="0 0 261.1 300">
  <defs>
    <style>
      .cls-1 {
        fill: url(#linear-gradient);
      }

      .cls-2 {
        fill: #fff;
      }

      .cls-3 {
        fill: #4b2684;
      }
    </style>
    <linearGradient id="linear-gradient" x1="11.79" y1="278.43" x2="231.15" y2="41.21" gradientUnits="userSpaceOnUse">
      <stop offset="0" stop-color="#465cef"/>
      <stop offset="1" stop-color="#6f5afd"/>
    </linearGradient>
  </defs>
  <g id="Layer_1-2" data-name="Layer 1">
    <g>
      <path class="cls-1" d="M261.1,67.96v214.15c0,9.9-8,17.89-17.89,17.89H17.89c-9.87,0-17.89-8-17.89-17.89V17.89C0,8,8.02,0,17.89,0H193.14l67.96,67.96Z"/>
      <g>
        <rect class="cls-2" x="32.27" y="60.59" width="98.28" height="36.07" rx="18.03" ry="18.03"/>
        <rect class="cls-2" x="32.27" y="131.97" width="138.12" height="36.07" rx="18.03" ry="18.03"/>
        <rect class="cls-2" x="32.27" y="203.35" width="196.57" height="36.07" rx="18.03" ry="18.03"/>
      </g>
      <path class="cls-3" d="M261.1,67.96h-61.24c-3.71,0-6.72-3.01-6.72-6.72V0l67.96,67.96Z"/>
    </g>
  </g>
</svg>